PathFileType	4	(X/Y/Z)	pose_F01_0-96.trc
DataRate	CameraRate	NumFrames	NumMarkers	Units	OrigDataRate	OrigDataStartFrame	OrigNumFrames
30	30	8	21	m	30	36	96
Frame#	Time	CHip			RHip			RKnee			RAnkle			RBigToe			RSmallToe			RHeel			LHip			LKnee			LAnkle			LBigToe			LSmallToe			LHeel			Neck			Nose			RShoulder			RElbow			RWrist			LShoulder			LElbow			LWrist			
		X1	Y1	Z1	X2	Y2	Z2	X3	Y3	Z3	X4	Y4	Z4	X5	Y5	Z5	X6	Y6	Z6	X7	Y7	Z7	X8	Y8	Z8	X9	Y9	Z9	X10	Y10	Z10	X11	Y11	Z11	X12	Y12	Z12	X13	Y13	Z13	X14	Y14	Z14	X15	Y15	Z15	X16	Y16	Z16	X17	Y17	Z17	X18	Y18	Z18	X19	Y19	Z19	X20	Y20	Z20	X21	Y21	Z21	
36	1.2	-0.1960269234858967	1.852896963130465	-0.61709393292724	-0.2082686317871537	1.8560292222179133	-0.5447313698652401	-0.2366641969050699	1.7152544746230556	-0.42003978099911293	-0.21791889307703183	1.5919732357808003	-0.3519426840447226	-0.20713964225867473	1.566598872319177	-0.4087729257232962	-0.20406452810230136	1.5763625686789007	-0.39857191969216094	-0.20924616454895614	1.5858087888474597	-0.3517685327731482	-0.1792594422519354	1.8522721126284052	-0.6886958593768444	-0.20644167619880094	1.6940046556792632	-0.6817118782713704	-0.16205458373594578	1.567743955567003	-0.7209220196024728	-0.19192805804758814	1.528379362398907	-0.7028906752526811	-0.29213507768128194	1.4814021731213531	-1.1749509578882318	-0.15387902218342475	1.5589099971606697	-0.7192192495791718	-0.17953203229578674	2.0364045884620388	-0.6908668932107347	-0.199078822604502	2.113712789617683	-0.6777327126217693	-0.19980541176050265	2.041017326845706	-0.5973612701233677	-0.22433240851438052	1.9818657705275968	-0.4409635064884301	-0.2574803676228166	2.0196180612822867	-0.33762066729421847	-0.15706747274470864	2.0338236302018093	-0.7870734183060735	-0.16264566525790747	1.9500957659979685	-0.8566827413171899	-0.1979380568579205	1.9925716794100126	-0.8884400982106327
37	1.2333333333333334	-0.19635443156972257	1.8629803574806383	-0.6217637182703339	-0.2097656810437406	1.8651682977399637	-0.5525218732501982	-0.22978880098869026	1.7216308411830699	-0.43308267556828134	-0.20870660562330523	1.596427769651923	-0.37258315243325774	-0.20713964225867473	1.566598872319177	-0.4087729257232962	-0.20406452810230136	1.5763625686789007	-0.39857191969216094	-0.20405947432605975	1.5918660608238702	-0.3778250285986337	-0.18019826274578218	1.8609108297169037	-0.6962405662952502	-0.20108327120942962	1.7067236272300255	-0.6885961795052373	-0.16158007698266105	1.5716278344692374	-0.721858692350893	-0.3083854116730833	1.4761863712738166	-1.1436850770101774	-0.28754147336923286	1.48158801503771	-1.1821521265661332	-0.1527078856920503	1.562765196402157	-0.7172881950495168	-0.18438844800656282	2.0440324682856055	-0.689855392648172	-0.2044277889762493	2.1215409202291293	-0.6876345130481705	-0.20387296507116676	2.048548273698368	-0.5940765900904836	-0.22609946244118315	1.9869005283293988	-0.4477135174419457	-0.2523834153344298	2.0232764263657312	-0.3538204594691531	-0.1605959053282215	2.040116603221003	-0.7907342522951099	-0.16278332884918392	1.9562313263547566	-0.8484234715033013	-0.1986784668198527	1.9823457628349852	-0.878668753481597
38	1.2666666666666666	-0.19761949982324287	1.8738484036796603	-0.6178528489801548	-0.21102829580075347	1.875735742689737	-0.5485640533754846	-0.2259230692362971	1.730909005904643	-0.4476672493546241	-0.21240405907961782	1.594835639639488	-0.3870050321445623	-0.20713964225867473	1.566598872319177	-0.4087729257232962	-0.20406452810230136	1.5763625686789007	-0.39857191969216094	-0.20939354211359412	1.5890616452253705	-0.3901537059480097	-0.18083670530142165	1.8733545376580183	-0.6892609197463616	-0.1952004855031978	1.7190750006701567	-0.691793204134991	-0.16124000656930612	1.57270508966788	-0.7223449353439293	-0.1886891523398357	1.528237662406238	-0.7019605281606135	-0.28984214527105306	1.4821111267729188	-1.1784655708207967	-0.15229907797153056	1.5634950508070136	-0.7178340635071953	-0.18554321996028267	2.053913312390316	-0.6857713000049794	-0.20859881146468415	2.1251047970465278	-0.6834981622545427	-0.20785210864723808	2.055698676163847	-0.5906338823939807	-0.22697350413765646	1.9931187511916846	-0.4438805168748091	-0.25736892620153373	2.0324224950129475	-0.3634358868812843	-0.16399034515470318	2.050472485311424	-0.7841230840848494	-0.1608585041845299	1.9636765389327737	-0.8429192048933145	-0.19739557052559945	1.9874912513931586	-0.8760700481512715
39	1.3	-0.19877070336691094	1.8852460315804236	-0.6139233857326118	-0.21306792361567098	1.885802340190762	-0.5392422997699992	-0.22389506451366878	1.7362137470027394	-0.4507433226804722	-0.2196269757863742	1.5992476996067808	-0.38372452009420244	-0.20713964225867473	1.566598872319177	-0.4087729257232962	-0.20406452810230136	1.5763625686789007	-0.39857191969216094	-0.21590125006301383	1.5975541839472922	-0.3929880850787219	-0.18412633578539503	1.8834135891999106	-0.6826634252528665	-0.18897397080431028	1.7327334408876176	-0.6913714462335914	-0.16349937448205432	1.5767919880238632	-0.7202754424092702	-0.30608733567278695	1.4777691574802707	-1.14713265846373	-0.28673188766712376	1.481913431160131	-1.179004919043834	-0.15386147700368935	1.5677793092752583	-0.7124557575207275	-0.18665662579595535	2.0620421142780367	-0.6817554464498025	-0.20914379634531602	2.134571936838424	-0.6877936418240133	-0.20882593229683552	2.0678565563982083	-0.5789689661344861	-0.2268301081758393	1.998144072878934	-0.4448804187493312	-0.2592079206163983	2.0374573466688655	-0.3631652283136068	-0.16163276807533275	2.059430610572398	-0.7768140171253367	-0.15772439848368044	1.9758147921245668	-0.832445284386725	-0.1940703952873885	2.0000592071547185	-0.876243989798543
40	1.3333333333333333	-0.20080965168333248	1.8919990736429668	-0.6126071911347801	-0.21504614338533218	1.8926049651308152	-0.5381293763590793	-0.22400590265785125	1.7402700942278648	-0.4510572634104823	-0.22300585464460299	1.5998088575270832	-0.37508378615549687	-0.20713964225867473	1.566598872319177	-0.4087729257232962	-0.20406452810230136	1.5763625686789007	-0.39857191969216094	-0.2163418917598626	1.5957595540125733	-0.3822265098330106	-0.18347102212876654	1.8889619999641998	-0.6802346522000018	-0.19320695103198382	1.7313633707218667	-0.6950214728752466	-0.16371514601175352	1.5841608511066914	-0.720762647371184	-0.18179782144654857	1.5347830902447832	-0.7094412039814274	-0.28308037822233356	1.4854688045402058	-1.1898766443029802	-0.15805039456878547	1.5751761616270712	-0.7093162961415679	-0.18267946017852893	2.0701190323669327	-0.6795236364308965	-0.20644316155002101	2.139705942410386	-0.6801716960961698	-0.2049233111788434	2.072775542067604	-0.576530757381376	-0.22393838709352035	2.001115647730652	-0.44483965701337874	-0.25418931735878725	2.0432635519415183	-0.36544944923621603	-0.1577948354629438	2.06524976284042	-0.7739499343347512	-0.15612199589659229	1.9799615001977222	-0.8268412298084077	-0.19278206083648092	2.0070331011571847	-0.8625755951124348
41	1.3666666666666667	-0.19651961606443635	1.897578603678307	-0.6178023292835092	-0.21289154230545554	1.8991573705980196	-0.5415078796310631	-0.22502032137772301	1.7471005575054068	-0.45536717670919524	-0.22187211654054198	1.6048343390744368	-0.3726038317007641	-0.20713964225867473	1.566598872319177	-0.4087729257232962	-0.20406452810230136	1.5763625686789007	-0.39857191969216094	-0.21499237614187247	1.6023361349166854	-0.3802410527886185	-0.18329295291080497	1.895370637327686	-0.6812728515915035	-0.19825447679545896	1.7409223782514534	-0.6911494869704916	-0.16376074922591133	1.5941328178758545	-0.7139642095468325	-0.3020595726265431	1.4829878944232002	-1.1718281012567788	-0.28415913178715435	1.4851328625523674	-1.1944644867817875	-0.15675679126823064	1.5871509951199236	-0.7037480556361067	-0.17741852432530641	2.0727365536267515	-0.681397429336066	-0.20254232226191066	2.1432009919438837	-0.6772412124127588	-0.1966698296579501	2.0743386682419103	-0.5857961030090645	-0.22287176373924983	2.0036710892633645	-0.4507597999367194	-0.250553511517934	2.0508832397950667	-0.3798265877796226	-0.1552532364493669	2.0705921904015936	-0.7768444491936388	-0.15590330942606098	1.9867310862067755	-0.8278701694924703	-0.19400857137035613	2.020116077223227	-0.8583208767132121
42	1.4	-0.19711823748990723	1.8985242332127457	-0.6212889440927717	-0.2073470662315526	1.9001677332730746	-0.5513724808829435	-0.2242268695283539	1.7485363869504553	-0.46102525737273736	-0.2257962622070902	1.6022681355779018	-0.3720695646982677	-0.20713964225867473	1.566598872319177	-0.4087729257232962	-0.20406452810230136	1.5763625686789007	-0.39857191969216094	-0.22037973156018176	1.5966638138920848	-0.37758231102115586	-0.18167063368455438	1.8977373017518364	-0.6870824961920191	-0.19650896047199623	1.736709257456322	-0.696385353845879	-0.16396604707453907	1.5927103517174004	-0.7132843357491059	-0.3048188003637462	1.481731122199969	-1.1814808271745016	-0.28501492494731034	1.485089990765585	-1.197706883734199	-0.15672471486009226	1.5874881318817509	-0.7037104016058191	-0.1704471241603624	2.073934089590889	-0.6970747038752911	-0.1964381055577632	2.146469974750524	-0.6767672201815093	-0.1921489678270242	2.0748090325258643	-0.5989223333327872	-0.21900659052774366	2.0066491885661866	-0.4642315767712699	-0.24590598610636077	2.0595503712027328	-0.39891249407495283	-0.14707906541816956	2.070427710267833	-0.7890179486365068	-0.15436855179713005	1.9870556536655848	-0.833041712665351	-0.19755655962397925	2.0271587388982746	-0.851091853596376
43	1.4333333333333333	-0.1914837330955879	1.9000056730038097	-0.6315182921159233	-0.20282533428809124	1.9034244210840907	-0.5650703549279319	-0.22513673111602717	1.7485561976865216	-0.4644144500842168	-0.2258045564728734	1.5988014012992313	-0.37165421928732023	-0.20713964225867473	1.566598872319177	-0.4087729257232962	-0.20406452810230136	1.5763625686789007	-0.39857191969216094	-0.22431876526243003	1.591541387715448	-0.3723931378171647	-0.17745491701464855	1.899683914023805	-0.703442097638713	-0.19215138655605676	1.7341838007041774	-0.7005834815293985	-0.1624542669013154	1.5921219986670783	-0.7189361863019333	-0.3060460154891096	1.483138677983798	-1.1747758065659388	-0.2850261163382446	1.4850396856328052	-1.19762552261072	-0.1557944097502011	1.585583863359027	-0.7125018504912684	-0.16329679351410886	2.0732930531588183	-0.711751266603858	-0.1879282380082539	2.145358877091436	-0.6856580660392096	-0.1814969897713495	2.0753666992589106	-0.6185881491851281	-0.21486176060176487	2.0110193359146216	-0.4864862751508092	-0.2404084446531785	2.06857747323295	-0.43272180087429063	-0.14156423311820437	2.0717373252025024	-0.8013520219761353	-0.15498723917095542	1.9907202274854938	-0.8364934198521211	-0.19884511451434797	2.0354195775178754	-0.8576911497863828
